<svg xmlns="http://www.w3.org/2000/svg" fill="#fff" preserveAspectRatio="xMidYMid meet" height="1em" width="1em" viewBox="0 0 40 40">
  <g>
    <path d="M29.577,23.563 C27.233,23.563 25.935,22.138 25.935,22.138 L27.22,20.283 C27.22,20.283 28.349,21.315 29.605,21.315 C30.108,21.315 30.652,21.12 30.652,20.52 C30.652,19.334 26.158,19.376 26.158,16.306 C26.158,14.464 27.707,13.25 29.688,13.25 C31.839,13.25 32.898,14.38 32.898,14.38 L31.866,16.376 C31.866,16.376 30.861,15.497 29.661,15.497 C29.159,15.497 28.6,15.72 28.6,16.278 C28.6,17.534 33.094,17.311 33.094,20.464 C33.094,22.125 31.824,23.563 29.577,23.563 L29.577,23.563 Z M23.027,23.394 L22.721,18.901 C22.665,18.147 22.721,17.227 22.721,17.227 L22.692,17.227 C22.692,17.227 22.356,18.273 22.134,18.901 L21.088,21.79 L18.994,21.79 L17.947,18.901 C17.724,18.273 17.389,17.227 17.389,17.227 L17.361,17.227 C17.361,17.227 17.417,18.147 17.361,18.901 L17.055,23.394 L14.598,23.394 L15.422,13.417 L18.073,13.417 L19.524,17.631 C19.748,18.273 20.026,19.278 20.026,19.278 L20.055,19.278 C20.055,19.278 20.334,18.273 20.557,17.631 L22.008,13.417 L24.66,13.417 L25.469,23.394 L23.027,23.394 Z M10.548,23.563 C8.204,23.563 6.906,22.138 6.906,22.138 L8.19,20.283 C8.19,20.283 9.32,21.315 10.576,21.315 C11.078,21.315 11.623,21.12 11.623,20.52 C11.623,19.334 7.129,19.376 7.129,16.306 C7.129,14.464 8.678,13.25 10.66,13.25 C12.808,13.25 13.869,14.38 13.869,14.38 L12.836,16.376 C12.836,16.376 11.832,15.497 10.632,15.497 C10.129,15.497 9.571,15.72 9.571,16.278 C9.571,17.534 14.064,17.311 14.064,20.464 C14.064,22.125 12.795,23.563 10.548,23.563 L10.548,23.563 Z M32.814,6 L7.185,6 C5.437,6 4,7.438 4,9.213 L4,28.99 C4,30.756 5.426,32.203 7.185,32.203 L10.61,32.203 L12.445,34.295 C13.086,34.952 14.117,34.949 14.755,34.295 L16.59,32.203 L32.814,32.203 C34.562,32.203 36,30.764 36,28.99 L36,9.213 C36,7.446 34.574,6 32.814,6 L32.814,6 Z"></path>
  </g>
</svg>

